<svg xmlns="http://www.w3.org/2000/svg" xmlns:xlink="http://www.w3.org/1999/xlink" version="1.1" width="52.00313" height="50.02138" viewBox="0,0,52.00313,50.02138"><g transform="translate(-254.03524,-147.58115)"><g data-paper-data="{&quot;isPaintingLayer&quot;:true}" fill-rule="nonzero" stroke-linejoin="miter" stroke-miterlimit="10" stroke-dasharray="" stroke-dashoffset="0" style="mix-blend-mode: normal"><path d="M254.03525,197.60253v-19.98215c0.24468,-1.00302 0.1338,-2.25804 0,-3.52974v-4.6327c0.46387,-0.9802 0.92612,-1.96115 1.39249,-2.94078c0.24495,-0.2743 0.37671,-0.51061 0.37671,-0.51061l0.88042,-1.57893c0.1562,0.06271 0.30663,0.1309 0.44917,0.20667c3.59915,1.91334 7.52899,4.52866 11.4567,5.31756c3.89986,0.7833 7.99657,2.64416 11.95349,3.83433c4.71048,1.41683 9.56854,2.77456 14.47499,4.00648c-0.43644,4.68619 -0.81942,10.93607 -0.18459,16.51367c0.12892,1.1327 0.07255,0.64677 0.2935,1.70529c0,0 -0.72984,1.59091 -1.86108,1.59091c-4.9031,0 -39.2318,0 -39.2318,0z" fill="#000000" stroke="#000000" stroke-width="0" stroke-linecap="butt"/><path d="M254.99352,167.98752c0.32736,-0.53696 0.6508,-1.07667 0.96814,-1.62189l11.21298,-18.78448c0,0 27.2325,17.63338 31.36753,20.31086c1.01918,0.65993 1.22376,3.05207 1.22376,3.05207c-0.12194,0.72681 0.50017,-0.47117 0.50114,-0.05297c0.00275,1.18865 -0.70959,5.53647 -1.0876,10.85142c-2.08116,-0.80156 -4.1318,-1.65946 -6.3015,-2.24087c-5.00517,-1.34125 -10.33215,-1.02255 -15.34481,-2.4673c-3.06252,-0.88267 -5.93483,-2.04036 -8.99218,-2.85573c-0.41738,-0.7818 -1.18264,-1.33446 -2.07791,-1.43109l-3.03387,-0.37174c-0.83214,-0.14609 -2.3472,-0.629 -4.03938,-1.01397c-1.66947,-0.7832 -3.33264,-1.58096 -5.00233,-2.35908z" data-paper-data="{&quot;index&quot;:null}" fill="#000000" stroke="#000000" stroke-width="0" stroke-linecap="butt"/><path d="M256.00004,195.15064v-17.93152c0.22539,-0.90008 0.12326,-2.02631 0,-3.1675v-4.15727c0.42731,-0.87961 0.85312,-1.75989 1.28274,-2.63899c0.22564,-0.24615 0.34702,-0.45821 0.34702,-0.45821l0.81101,-1.41689c0.14388,0.05628 0.28247,0.11747 0.41377,0.18546c3.31547,1.71699 6.93559,4.06391 10.55373,4.77185c3.59247,0.70291 7.36631,2.3728 11.01137,3.44084c4.66509,1.36692 9.48731,2.67252 14.35312,3.84244c-0.45977,4.94053 -0.87306,11.67919 -0.09483,17.52979z" fill="#f3f3f3" stroke="#000000" stroke-width="0" stroke-linecap="butt"/><path d="M257.02594,170.03136c0.30338,-0.4778 0.46028,-2.95804 0.75438,-3.44319l10.10597,-15.85766l32.34631,20.79808c-0.15641,1.84215 -0.80544,6.1392 -1.11576,11.15465c-2.32745,-0.81615 -4.57539,-1.78737 -6.9813,-2.40639c-4.63857,-1.19346 -9.57537,-0.90989 -14.22088,-2.19545c-2.8382,-0.78542 -5.50013,-1.81556 -8.33354,-2.54109c-0.38682,-0.69566 -1.09602,-1.18742 -1.92571,-1.2734l-2.81165,-0.33078c-0.77119,-0.12999 -2.17528,-0.5597 -3.74352,-0.90225c-1.54719,-0.6969 -3.08853,-1.40677 -4.63593,-2.09915z" data-paper-data="{&quot;index&quot;:null}" fill="#f3f3f3" stroke="#000000" stroke-width="0" stroke-linecap="butt"/><path d="M276.44887,181.26137c0,-7.59392 6.15609,-13.75 13.75,-13.75c7.59391,0 13.75,6.15608 13.75,13.75c0,7.59392 -6.15609,13.75 -13.75,13.75c-7.59391,0 -13.75,-6.15608 -13.75,-13.75z" fill="#f3f3f3" stroke="none" stroke-width="0" stroke-linecap="butt"/><path d="M295.76705,167.28409c0,0 1.94501,0.7559 3.86135,2.52184c1.39463,1.28517 3.22863,3.76016 3.83218,4.54942c1.10716,1.44782 1.26206,4.54899 1.58848,6.76422c0.29537,2.00451 -0.34179,3.70919 -1.04196,6.02362c-0.43782,1.44723 -2.87237,4.00327 -4.55572,5.64464c-0.44129,0.43028 -1.5391,1.00003 -2.57577,1.4819c-0.46924,0.21811 -1.40432,1.05846 -2.62274,1.44073c-1.79566,0.56338 -3.94036,0.66455 -3.94036,0.66455" fill="none" stroke="#000000" stroke-width="2" stroke-linecap="round"/></g></g></svg>